<svg xmlns="http://www.w3.org/2000/svg" xmlns:xlink="http://www.w3.org/1999/xlink" width="500" zoomAndPan="magnify" viewBox="0 0 375 112.499997" height="150" preserveAspectRatio="xMidYMid meet" version="1.0"><defs><g/><clipPath id="23a39f958b"><path d="M 35.703125 16.71875 L 114.105469 16.71875 L 114.105469 95.117188 L 35.703125 95.117188 Z M 35.703125 16.71875 " clip-rule="nonzero"/></clipPath></defs><g clip-path="url(#23a39f958b)"><path fill="#ff1616" d="M 74.988281 16.71875 C 79.414062 16.71875 83.65625 17.449219 87.636719 18.8125 C 86.902344 23.371094 83.394531 33.554688 66.582031 37.800781 C 44.582031 43.351562 49.007812 56 49.007812 56 L 75.171875 56 L 102.957031 28.214844 C 109.949219 35.3125 114.269531 45.054688 114.269531 55.816406 C 114.269531 55.84375 114.269531 55.867188 114.269531 55.921875 C 114.269531 55.949219 114.269531 55.972656 114.269531 56.027344 C 114.269531 64.171875 111.808594 71.714844 107.566406 78 C 106.519531 79.570312 105.339844 81.0625 104.082031 82.449219 C 101.125 85.699219 97.613281 88.472656 93.738281 90.570312 C 92.0625 91.484375 90.332031 92.269531 88.527344 92.925781 C 86.71875 93.582031 84.859375 94.128906 82.949219 94.523438 C 80.382812 95.046875 77.738281 95.308594 75.039062 95.308594 C 74.410156 95.308594 73.808594 95.28125 73.179688 95.257812 C 72.996094 95.257812 72.789062 95.230469 72.605469 95.230469 C 72.183594 95.203125 71.765625 95.175781 71.347656 95.125 C 71.136719 95.097656 70.929688 95.074219 70.691406 95.074219 C 70.273438 95.019531 69.855469 94.96875 69.460938 94.914062 C 69.277344 94.890625 69.070312 94.863281 68.886719 94.835938 C 68.308594 94.757812 67.734375 94.652344 67.15625 94.523438 C 67.105469 94.523438 67.027344 94.496094 66.972656 94.46875 C 66.449219 94.367188 65.925781 94.234375 65.402344 94.105469 C 65.191406 94.050781 65.007812 94 64.800781 93.945312 C 64.433594 93.84375 64.039062 93.738281 63.675781 93.632812 C 63.464844 93.582031 63.253906 93.5 63.046875 93.421875 C 62.914062 93.371094 62.785156 93.34375 62.652344 93.292969 C 62.652344 93.238281 62.679688 93.1875 62.679688 93.136719 C 63.464844 88.5 67.078125 78.496094 83.707031 74.304688 C 105.707031 68.753906 101.28125 56.105469 101.28125 56.105469 L 75.117188 56.105469 L 47.386719 83.757812 L 47.304688 83.839844 C 47.304688 83.839844 47.28125 83.8125 47.28125 83.8125 C 47.148438 83.679688 47.019531 83.550781 46.886719 83.417969 C 46.597656 83.132812 46.3125 82.84375 46.050781 82.527344 C 45.890625 82.34375 45.734375 82.160156 45.578125 81.980469 C 45.34375 81.71875 45.105469 81.453125 44.871094 81.167969 C 44.714844 80.957031 44.554688 80.773438 44.375 80.566406 C 44.164062 80.300781 43.953125 80.039062 43.746094 79.753906 C 43.585938 79.542969 43.429688 79.332031 43.273438 79.125 C 43.0625 78.863281 42.878906 78.574219 42.695312 78.3125 C 42.539062 78.101562 42.410156 77.867188 42.253906 77.65625 C 42.070312 77.371094 41.886719 77.082031 41.703125 76.792969 C 41.570312 76.582031 41.414062 76.347656 41.28125 76.140625 C 41.101562 75.824219 40.917969 75.511719 40.757812 75.222656 C 40.628906 75.011719 40.523438 74.804688 40.394531 74.59375 C 40.210938 74.226562 40 73.859375 39.816406 73.492188 C 39.738281 73.335938 39.632812 73.152344 39.554688 72.996094 C 39.292969 72.472656 39.058594 71.921875 38.820312 71.371094 C 38.742188 71.1875 38.664062 71.003906 38.613281 70.824219 C 38.453125 70.457031 38.296875 70.0625 38.167969 69.671875 C 38.089844 69.433594 38.007812 69.199219 37.929688 68.964844 C 37.800781 68.621094 37.695312 68.28125 37.589844 67.941406 C 37.511719 67.679688 37.433594 67.445312 37.355469 67.183594 C 37.25 66.84375 37.171875 66.527344 37.066406 66.1875 C 36.988281 65.925781 36.9375 65.664062 36.855469 65.402344 C 36.777344 65.0625 36.699219 64.71875 36.621094 64.40625 C 36.570312 64.144531 36.515625 63.855469 36.464844 63.59375 C 36.386719 63.253906 36.332031 62.914062 36.28125 62.574219 C 36.230469 62.3125 36.203125 62.023438 36.148438 61.761719 C 36.097656 61.394531 36.046875 61.027344 36.019531 60.660156 C 35.992188 60.398438 35.96875 60.136719 35.941406 59.902344 C 35.941406 59.851562 35.941406 59.796875 35.914062 59.746094 C 35.886719 59.40625 35.863281 59.0625 35.835938 58.722656 C 35.808594 58.488281 35.785156 58.226562 35.785156 57.992188 C 35.730469 57.28125 35.703125 56.65625 35.703125 56 C 35.703125 34.316406 53.304688 16.71875 74.988281 16.71875 Z M 74.988281 16.71875 " fill-opacity="1" fill-rule="nonzero"/></g><g fill="#ffffff" fill-opacity="1"><g transform="translate(121.801102, 71.719162)"><g><path d="M 6.65625 0 C 5.457031 0 4.476562 -0.359375 3.71875 -1.078125 C 2.96875 -1.804688 2.59375 -2.757812 2.59375 -3.9375 L 2.59375 -29.328125 L 16.59375 -29.328125 C 18.832031 -29.328125 20.796875 -28.90625 22.484375 -28.0625 C 24.171875 -27.226562 25.484375 -26.039062 26.421875 -24.5 C 27.359375 -22.96875 27.828125 -21.195312 27.828125 -19.1875 L 27.828125 -10.984375 C 27.828125 -7.378906 26.890625 -4.644531 25.015625 -2.78125 C 23.140625 -0.925781 20.390625 0 16.765625 0 Z M 16.59375 -5.109375 C 18.382812 -5.109375 19.738281 -5.625 20.65625 -6.65625 C 21.582031 -7.695312 22.046875 -9.222656 22.046875 -11.234375 L 22.046875 -18.9375 C 22.046875 -20.53125 21.523438 -21.804688 20.484375 -22.765625 C 19.453125 -23.734375 18.097656 -24.21875 16.421875 -24.21875 L 8.375 -24.21875 L 8.375 -5.109375 Z M 16.59375 -5.109375 "/></g></g></g><g fill="#ffffff" fill-opacity="1"><g transform="translate(150.129507, 71.719162)"><g><path d="M 2.4375 -20.90625 L 7.703125 -20.90625 L 7.703125 -18.234375 C 8.234375 -19.035156 8.992188 -19.695312 9.984375 -20.21875 C 10.984375 -20.738281 12.023438 -21 13.109375 -21 L 15.96875 -21 L 15.96875 -16.046875 L 13.109375 -16.046875 C 11.628906 -16.046875 10.425781 -15.597656 9.5 -14.703125 C 8.582031 -13.816406 8.125 -12.671875 8.125 -11.265625 L 8.125 0 L 2.4375 0 Z M 2.4375 -20.90625 "/></g></g></g><g fill="#ffffff" fill-opacity="1"><g transform="translate(165.089816, 71.719162)"><g><path d="M 6.03125 -22.875 C 4.945312 -22.875 4.078125 -23.1875 3.421875 -23.8125 C 2.765625 -24.445312 2.4375 -25.28125 2.4375 -26.3125 C 2.4375 -27.351562 2.765625 -28.1875 3.421875 -28.8125 C 4.078125 -29.4375 4.945312 -29.75 6.03125 -29.75 C 7.125 -29.75 8 -29.4375 8.65625 -28.8125 C 9.3125 -28.1875 9.640625 -27.351562 9.640625 -26.3125 C 9.640625 -25.28125 9.3125 -24.445312 8.65625 -23.8125 C 8 -23.1875 7.125 -22.875 6.03125 -22.875 Z M 3.1875 -20.90625 L 8.890625 -20.90625 L 8.890625 0 L 3.1875 0 Z M 3.1875 -20.90625 "/></g></g></g><g fill="#ffffff" fill-opacity="1"><g transform="translate(176.06903, 71.719162)"><g><path d="M 10.5625 0 C 9.75 0 9.066406 -0.210938 8.515625 -0.640625 C 7.972656 -1.078125 7.507812 -1.769531 7.125 -2.71875 L -0.078125 -20.90625 L 5.90625 -20.90625 L 10.859375 -6.53125 L 10.9375 -6.53125 L 15.921875 -20.90625 L 21.921875 -20.90625 L 13.5 0 Z M 10.5625 0 "/></g></g></g><g fill="#ffffff" fill-opacity="1"><g transform="translate(196.812406, 71.719162)"><g><path d="M 10.5625 0.328125 C 8.800781 0.328125 7.242188 0 5.890625 -0.65625 C 4.535156 -1.3125 3.476562 -2.234375 2.71875 -3.421875 C 1.96875 -4.609375 1.59375 -5.96875 1.59375 -7.5 L 1.59375 -12.90625 C 1.59375 -14.550781 1.96875 -16.003906 2.71875 -17.265625 C 3.476562 -18.523438 4.535156 -19.503906 5.890625 -20.203125 C 7.242188 -20.898438 8.800781 -21.25 10.5625 -21.25 L 13.90625 -21.25 C 16.59375 -21.25 18.742188 -20.492188 20.359375 -18.984375 C 21.984375 -17.472656 22.796875 -15.460938 22.796875 -12.953125 L 22.796875 -8.5 L 7.296875 -8.5 L 7.296875 -7.5 C 7.296875 -6.582031 7.585938 -5.84375 8.171875 -5.28125 C 8.753906 -4.71875 9.550781 -4.4375 10.5625 -4.4375 L 13.828125 -4.4375 C 14.804688 -4.4375 15.59375 -4.648438 16.1875 -5.078125 C 16.789062 -5.515625 17.09375 -6.082031 17.09375 -6.78125 L 22.71875 -6.78125 C 22.71875 -5.382812 22.335938 -4.140625 21.578125 -3.046875 C 20.828125 -1.960938 19.773438 -1.128906 18.421875 -0.546875 C 17.066406 0.0351562 15.507812 0.328125 13.75 0.328125 Z M 17.1875 -12.609375 L 17.1875 -12.953125 C 17.1875 -14.035156 16.890625 -14.90625 16.296875 -15.5625 C 15.710938 -16.21875 14.929688 -16.546875 13.953125 -16.546875 L 10.5625 -16.546875 C 9.550781 -16.546875 8.738281 -16.195312 8.125 -15.5 C 7.507812 -14.800781 7.203125 -13.878906 7.203125 -12.734375 L 7.203125 -12.609375 Z M 17.1875 -12.609375 "/></g></g></g><g fill="#ffffff" fill-opacity="1"><g transform="translate(219.94444, 71.719162)"><g><path d="M 2.4375 -20.90625 L 7.703125 -20.90625 L 7.703125 -18.234375 C 8.234375 -19.035156 8.992188 -19.695312 9.984375 -20.21875 C 10.984375 -20.738281 12.023438 -21 13.109375 -21 L 15.96875 -21 L 15.96875 -16.046875 L 13.109375 -16.046875 C 11.628906 -16.046875 10.425781 -15.597656 9.5 -14.703125 C 8.582031 -13.816406 8.125 -12.671875 8.125 -11.265625 L 8.125 0 L 2.4375 0 Z M 2.4375 -20.90625 "/></g></g></g><g fill="#ffffff" fill-opacity="1"><g transform="translate(234.904746, 71.719162)"><g><path d="M 9.84375 0.328125 C 7.300781 0.328125 5.257812 -0.335938 3.71875 -1.671875 C 2.1875 -3.015625 1.421875 -4.773438 1.421875 -6.953125 L 7.046875 -6.953125 C 7.046875 -6.203125 7.300781 -5.59375 7.8125 -5.125 C 8.332031 -4.664062 9.007812 -4.4375 9.84375 -4.4375 L 13.625 -4.4375 C 15.300781 -4.4375 16.140625 -4.898438 16.140625 -5.828125 L 16.140625 -6.53125 C 16.140625 -6.8125 16 -7.070312 15.71875 -7.3125 C 15.4375 -7.550781 15.054688 -7.710938 14.578125 -7.796875 L 7.328125 -9.046875 C 5.628906 -9.328125 4.28125 -9.9375 3.28125 -10.875 C 2.289062 -11.8125 1.796875 -12.910156 1.796875 -14.171875 L 1.796875 -15.546875 C 1.796875 -17.335938 2.53125 -18.734375 4 -19.734375 C 5.46875 -20.742188 7.515625 -21.25 10.140625 -21.25 L 13.40625 -21.25 C 15.757812 -21.25 17.65625 -20.625 19.09375 -19.375 C 20.53125 -18.132812 21.25 -16.492188 21.25 -14.453125 L 15.625 -14.453125 C 15.625 -15.066406 15.421875 -15.554688 15.015625 -15.921875 C 14.617188 -16.285156 14.082031 -16.46875 13.40625 -16.46875 L 10.21875 -16.46875 C 8.40625 -16.46875 7.5 -16.050781 7.5 -15.21875 L 7.5 -14.546875 C 7.5 -14.234375 7.617188 -13.972656 7.859375 -13.765625 C 8.097656 -13.554688 8.441406 -13.410156 8.890625 -13.328125 L 16.515625 -11.9375 C 18.109375 -11.664062 19.390625 -11.070312 20.359375 -10.15625 C 21.335938 -9.25 21.828125 -8.222656 21.828125 -7.078125 L 21.828125 -5.578125 C 21.828125 -3.753906 21.078125 -2.3125 19.578125 -1.25 C 18.085938 -0.195312 16.101562 0.328125 13.625 0.328125 Z M 9.84375 0.328125 "/></g></g></g><g fill="#ffffff" fill-opacity="1"><g transform="translate(256.821493, 71.719162)"><g/></g></g><g fill="#ffffff" fill-opacity="1"><g transform="translate(267.800708, 71.719162)"><g><path d="M 19.78125 -6.828125 L 8.796875 -6.828125 L 6.203125 0 L 0.171875 0 L 11.65625 -29.328125 L 14.25 -29.328125 C 16.0625 -29.328125 17.289062 -28.488281 17.9375 -26.8125 L 28.375 0 L 22.34375 0 Z M 10.34375 -11.6875 L 18.234375 -11.6875 L 14.328125 -22.25 L 14.296875 -22.25 Z M 10.34375 -11.6875 "/></g></g></g><g fill="#ffffff" fill-opacity="1"><g transform="translate(295.249078, 71.719162)"><g><path d="M 2.4375 -20.90625 L 7.703125 -20.90625 L 7.703125 -18.640625 C 8.296875 -19.429688 9.046875 -20.0625 9.953125 -20.53125 C 10.859375 -21.007812 11.742188 -21.25 12.609375 -21.25 L 15.25 -21.25 C 16.925781 -21.25 18.40625 -20.90625 19.6875 -20.21875 C 20.976562 -19.53125 21.972656 -18.570312 22.671875 -17.34375 C 23.367188 -16.113281 23.71875 -14.703125 23.71875 -13.109375 L 23.71875 -8.421875 C 23.71875 -6.691406 23.367188 -5.160156 22.671875 -3.828125 C 21.972656 -2.503906 20.992188 -1.476562 19.734375 -0.75 C 18.484375 -0.03125 17.03125 0.328125 15.375 0.328125 L 12.65625 0.328125 C 11.875 0.328125 11.070312 0.148438 10.25 -0.203125 C 9.425781 -0.566406 8.71875 -1.054688 8.125 -1.671875 L 8.125 8.375 L 2.4375 8.375 Z M 14.625 -4.5625 C 15.65625 -4.5625 16.476562 -4.953125 17.09375 -5.734375 C 17.707031 -6.523438 18.015625 -7.5625 18.015625 -8.84375 L 18.015625 -12.703125 C 18.015625 -13.785156 17.703125 -14.660156 17.078125 -15.328125 C 16.453125 -16.003906 15.617188 -16.34375 14.578125 -16.34375 L 12.03125 -16.34375 C 11.21875 -16.34375 10.445312 -16.015625 9.71875 -15.359375 C 8.988281 -14.703125 8.457031 -13.859375 8.125 -12.828125 L 8.125 -8.671875 C 8.269531 -7.441406 8.695312 -6.445312 9.40625 -5.6875 C 10.125 -4.9375 11 -4.5625 12.03125 -4.5625 Z M 14.625 -4.5625 "/></g></g></g><g fill="#ffffff" fill-opacity="1"><g transform="translate(319.470673, 71.719162)"><g><path d="M 2.4375 -20.90625 L 7.703125 -20.90625 L 7.703125 -18.640625 C 8.296875 -19.429688 9.046875 -20.0625 9.953125 -20.53125 C 10.859375 -21.007812 11.742188 -21.25 12.609375 -21.25 L 15.25 -21.25 C 16.925781 -21.25 18.40625 -20.90625 19.6875 -20.21875 C 20.976562 -19.53125 21.972656 -18.570312 22.671875 -17.34375 C 23.367188 -16.113281 23.71875 -14.703125 23.71875 -13.109375 L 23.71875 -8.421875 C 23.71875 -6.691406 23.367188 -5.160156 22.671875 -3.828125 C 21.972656 -2.503906 20.992188 -1.476562 19.734375 -0.75 C 18.484375 -0.03125 17.03125 0.328125 15.375 0.328125 L 12.65625 0.328125 C 11.875 0.328125 11.070312 0.148438 10.25 -0.203125 C 9.425781 -0.566406 8.71875 -1.054688 8.125 -1.671875 L 8.125 8.375 L 2.4375 8.375 Z M 14.625 -4.5625 C 15.65625 -4.5625 16.476562 -4.953125 17.09375 -5.734375 C 17.707031 -6.523438 18.015625 -7.5625 18.015625 -8.84375 L 18.015625 -12.703125 C 18.015625 -13.785156 17.703125 -14.660156 17.078125 -15.328125 C 16.453125 -16.003906 15.617188 -16.34375 14.578125 -16.34375 L 12.03125 -16.34375 C 11.21875 -16.34375 10.445312 -16.015625 9.71875 -15.359375 C 8.988281 -14.703125 8.457031 -13.859375 8.125 -12.828125 L 8.125 -8.671875 C 8.269531 -7.441406 8.695312 -6.445312 9.40625 -5.6875 C 10.125 -4.9375 11 -4.5625 12.03125 -4.5625 Z M 14.625 -4.5625 "/></g></g></g></svg>