<svg xmlns="http://www.w3.org/2000/svg" xmlns:xlink="http://www.w3.org/1999/xlink" width="100" zoomAndPan="magnify" viewBox="0 0 75 74.999997" height="100" preserveAspectRatio="xMidYMid meet" version="1.0"><defs><clipPath id="af7a8f06fc"><path d="M 7.511719 7.5 L 67.511719 7.5 L 67.511719 67.5 L 7.511719 67.5 Z M 7.511719 7.5 " clip-rule="nonzero"/></clipPath></defs><g clip-path="url(#af7a8f06fc)"><path fill="#ff1616" d="M 37.503906 7.5 C 40.882812 7.5 44.121094 8.058594 47.164062 9.101562 C 46.601562 12.578125 43.921875 20.359375 31.085938 23.597656 C 14.289062 27.835938 17.667969 37.492188 17.667969 37.492188 L 37.644531 37.492188 L 58.78125 16.359375 L 58.859375 16.277344 C 64.199219 21.695312 67.5 29.136719 67.5 37.355469 C 67.5 37.375 67.5 37.394531 67.5 37.433594 C 67.5 37.453125 67.5 37.472656 67.5 37.515625 C 67.5 43.734375 65.617188 49.492188 62.378906 54.289062 C 61.578125 55.492188 60.679688 56.628906 59.71875 57.691406 C 57.460938 60.167969 54.78125 62.289062 51.820312 63.890625 C 50.542969 64.589844 49.222656 65.1875 47.84375 65.6875 C 46.460938 66.1875 45.042969 66.609375 43.582031 66.910156 C 41.625 67.308594 39.605469 67.507812 37.542969 67.507812 C 37.0625 67.507812 36.605469 67.488281 36.125 67.46875 C 35.984375 67.46875 35.824219 67.449219 35.683594 67.449219 C 35.363281 67.429688 35.042969 67.410156 34.726562 67.367188 C 34.566406 67.347656 34.40625 67.328125 34.226562 67.328125 C 33.90625 67.289062 33.585938 67.25 33.285156 67.207031 C 33.144531 67.1875 32.984375 67.167969 32.84375 67.148438 C 32.40625 67.089844 31.964844 67.007812 31.527344 66.910156 C 31.484375 66.910156 31.425781 66.886719 31.386719 66.867188 C 30.984375 66.789062 30.585938 66.6875 30.1875 66.589844 C 30.027344 66.546875 29.886719 66.507812 29.726562 66.46875 C 29.445312 66.386719 29.144531 66.308594 28.867188 66.226562 C 28.707031 66.1875 28.546875 66.128906 28.386719 66.070312 C 28.285156 66.027344 28.1875 66.007812 28.085938 65.96875 C 28.085938 65.929688 28.105469 65.886719 28.105469 65.847656 C 28.707031 62.308594 31.464844 54.671875 44.164062 51.472656 C 60.960938 47.230469 57.582031 37.574219 57.582031 37.574219 L 37.605469 37.574219 L 16.429688 58.691406 L 16.367188 58.75 C 16.367188 58.75 16.347656 58.730469 16.347656 58.730469 C 16.25 58.628906 16.148438 58.53125 16.046875 58.429688 C 15.828125 58.210938 15.609375 57.988281 15.410156 57.75 C 15.289062 57.609375 15.167969 57.46875 15.046875 57.332031 C 14.867188 57.128906 14.6875 56.929688 14.507812 56.710938 C 14.390625 56.550781 14.269531 56.410156 14.128906 56.25 C 13.96875 56.050781 13.808594 55.851562 13.648438 55.628906 C 13.527344 55.46875 13.410156 55.3125 13.289062 55.152344 C 13.128906 54.949219 12.988281 54.730469 12.847656 54.53125 C 12.730469 54.371094 12.628906 54.191406 12.507812 54.03125 C 12.367188 53.8125 12.230469 53.589844 12.089844 53.371094 C 11.988281 53.210938 11.871094 53.03125 11.769531 52.871094 C 11.628906 52.632812 11.488281 52.390625 11.371094 52.171875 C 11.269531 52.011719 11.1875 51.851562 11.089844 51.691406 C 10.949219 51.410156 10.789062 51.132812 10.648438 50.851562 C 10.589844 50.730469 10.507812 50.589844 10.449219 50.472656 C 10.25 50.070312 10.070312 49.652344 9.890625 49.230469 C 9.828125 49.09375 9.769531 48.953125 9.730469 48.8125 C 9.609375 48.53125 9.488281 48.230469 9.390625 47.933594 C 9.328125 47.753906 9.269531 47.570312 9.210938 47.390625 C 9.109375 47.132812 9.03125 46.871094 8.949219 46.613281 C 8.890625 46.414062 8.828125 46.234375 8.769531 46.03125 C 8.691406 45.773438 8.628906 45.53125 8.550781 45.273438 C 8.488281 45.074219 8.449219 44.871094 8.390625 44.671875 C 8.328125 44.414062 8.269531 44.152344 8.210938 43.914062 C 8.171875 43.714844 8.128906 43.492188 8.089844 43.292969 C 8.03125 43.03125 7.988281 42.773438 7.949219 42.511719 C 7.910156 42.3125 7.890625 42.09375 7.851562 41.894531 C 7.808594 41.613281 7.769531 41.332031 7.75 41.054688 C 7.730469 40.851562 7.710938 40.652344 7.691406 40.472656 C 7.691406 40.433594 7.691406 40.394531 7.671875 40.355469 C 7.648438 40.09375 7.628906 39.832031 7.609375 39.574219 C 7.589844 39.394531 7.570312 39.195312 7.570312 39.015625 C 7.53125 38.472656 7.511719 37.992188 7.511719 37.492188 C 7.511719 20.9375 20.949219 7.5 37.503906 7.5 Z M 37.503906 7.5 " fill-opacity="1" fill-rule="nonzero"/></g></svg>